<?xml version="1.0" encoding="UTF-8"?>
<svg id="Layer_2" data-name="Layer 2" xmlns="http://www.w3.org/2000/svg" xmlns:xlink="http://www.w3.org/1999/xlink" viewBox="0 0 1356.55 192.63">
  <defs>
    <style>
      .cls-1 {
        fill: url(#linear-gradient-2);
      }

      .cls-2 {
        fill: #131235;
      }

      .cls-3 {
        fill: url(#linear-gradient);
      }
    </style>
    <linearGradient id="linear-gradient" x1="-50.06" y1="-3463.31" x2="-49.06" y2="-3463.31" gradientTransform="translate(8692.98 -539585.7) scale(155.82 -155.82)" gradientUnits="userSpaceOnUse">
      <stop offset="0" stop-color="#ed1c24"/>
      <stop offset="1" stop-color="#c1272d"/>
    </linearGradient>
    <linearGradient id="linear-gradient-2" x1="-49.37" y1="-3454.82" x2="-48.37" y2="-3454.82" gradientTransform="translate(14389.08 -956635.08) scale(276.92 -276.92)" xlink:href="#linear-gradient"/>
  </defs>
  <g id="Layer_1-2" data-name="Layer 1">
    <path class="cls-2" d="M135.22,75.64h-15.85c0,6.1-1.23,11.82-3.44,17.06-3.32,7.85-8.89,14.57-15.9,19.3-3.5,2.37-7.35,4.23-11.46,5.51-4.11,1.28-8.47,1.97-13.04,1.97-6.1,0-11.82-1.23-17.06-3.44-7.85-3.32-14.57-8.89-19.3-15.9-2.37-3.5-4.23-7.35-5.51-11.46-1.28-4.11-1.97-8.47-1.97-13.04,0-6.1,1.23-11.82,3.44-17.06,3.32-7.85,8.89-14.57,15.9-19.3,3.5-2.37,7.35-4.23,11.46-5.51,4.11-1.28,8.47-1.97,13.04-1.97,6.1,0,11.82,1.23,17.06,3.44,7.85,3.32,14.57,8.89,19.3,15.9,2.37,3.5,4.23,7.35,5.51,11.46,1.28,4.11,1.97,8.47,1.97,13.04h31.7c0-10.39-2.11-20.36-5.94-29.41-5.75-13.58-15.3-25.08-27.35-33.22-6.02-4.07-12.68-7.3-19.79-9.51C90.88,1.3,83.32.11,75.53.11c-10.39,0-20.36,2.11-29.41,5.94-13.58,5.75-25.08,15.3-33.22,27.35-4.07,6.02-7.3,12.68-9.51,19.79C1.19,60.29,0,67.85,0,75.64c0,10.39,2.11,20.36,5.94,29.41,5.75,13.58,15.3,25.08,27.35,33.22,6.02,4.07,12.68,7.3,19.79,9.51,7.11,2.21,14.67,3.4,22.46,3.4,10.39,0,20.36-2.11,29.41-5.94,13.58-5.75,25.08-15.3,33.22-27.35,4.07-6.02,7.3-12.68,9.51-19.79,2.21-7.11,3.4-14.67,3.4-22.46h-15.85Z"/>
    <path class="cls-2" d="M303.17,75.64h-15.85c0,6.1-1.23,11.82-3.44,17.06-3.32,7.85-8.89,14.57-15.9,19.3-3.5,2.37-7.35,4.23-11.46,5.51-4.11,1.28-8.47,1.97-13.04,1.97-6.1,0-11.82-1.23-17.06-3.44-7.85-3.32-14.57-8.89-19.3-15.9-2.37-3.5-4.23-7.35-5.51-11.46-1.28-4.11-1.97-8.47-1.97-13.04,0-6.1,1.23-11.82,3.44-17.06,3.32-7.85,8.89-14.57,15.9-19.3,3.5-2.37,7.35-4.23,11.46-5.51,4.11-1.28,8.47-1.97,13.04-1.97,6.1,0,11.82,1.23,17.06,3.44,7.85,3.32,14.57,8.89,19.3,15.9,2.37,3.5,4.23,7.35,5.51,11.46,1.28,4.11,1.97,8.47,1.97,13.04h31.7c0-10.39-2.11-20.36-5.94-29.41-5.75-13.58-15.3-25.08-27.35-33.22-6.02-4.07-12.68-7.3-19.79-9.51-7.11-2.21-14.67-3.4-22.46-3.4-10.39,0-20.36,2.11-29.41,5.94-13.58,5.75-25.08,15.3-33.22,27.35-4.07,6.02-7.3,12.68-9.51,19.79-2.21,7.11-3.4,14.67-3.4,22.46,0,10.39,2.11,20.36,5.94,29.41,5.75,13.58,15.3,25.08,27.35,33.22,6.02,4.07,12.68,7.3,19.79,9.51,7.11,2.21,14.67,3.4,22.46,3.4,10.39,0,20.36-2.11,29.41-5.94,13.58-5.75,25.08-15.3,33.22-27.35,4.07-6.02,7.3-12.68,9.51-19.79,2.21-7.11,3.4-14.67,3.4-22.46h-15.85Z"/>
    <path class="cls-3" d="M970.68,155.82c-42.96,0-77.91-34.95-77.91-77.91S927.72,0,970.68,0s77.91,34.95,77.91,77.91-34.95,77.91-77.91,77.91ZM970.68,32.69c-24.93,0-45.22,20.28-45.22,45.21s20.28,45.22,45.22,45.22,45.22-20.28,45.22-45.22-20.28-45.21-45.22-45.21Z"/>
    <polyline class="cls-2" points="0 75.64 0 192.63 31.7 192.63 31.7 75.64"/>
    <polyline class="cls-2" points="287.32 75.64 287.32 156.41 319.01 156.41 319.01 75.64"/>
    <path class="cls-2" d="M605.34,75.64h-15.85c0,6.1-1.23,11.82-3.44,17.06-3.32,7.85-8.89,14.57-15.9,19.3-3.5,2.37-7.35,4.23-11.46,5.51-4.11,1.28-8.47,1.97-13.04,1.97-6.1,0-11.82-1.23-17.06-3.44-7.85-3.32-14.57-8.89-19.3-15.9-2.37-3.5-4.23-7.35-5.51-11.46-1.28-4.11-1.97-8.47-1.97-13.04,0-6.1,1.23-11.82,3.44-17.06,3.32-7.85,8.89-14.57,15.9-19.3,3.5-2.37,7.35-4.23,11.46-5.51,4.11-1.28,8.47-1.97,13.04-1.97,6.1,0,11.82,1.23,17.06,3.44,7.85,3.32,14.57,8.89,19.3,15.9,2.37,3.5,4.23,7.35,5.51,11.46,1.28,4.11,1.97,8.47,1.97,13.04h31.7c0-10.39-2.11-20.36-5.94-29.41-5.75-13.58-15.3-25.08-27.35-33.22-6.02-4.07-12.68-7.3-19.79-9.51-7.11-2.21-14.67-3.4-22.46-3.4-10.39,0-20.36,2.11-29.41,5.94-13.58,5.75-25.08,15.3-33.22,27.35-4.07,6.02-7.3,12.68-9.51,19.79-2.21,7.11-3.4,14.67-3.4,22.46,0,10.39,2.11,20.36,5.94,29.41,5.75,13.58,15.3,25.08,27.35,33.22,6.02,4.07,12.68,7.3,19.79,9.51,7.11,2.21,14.67,3.4,22.46,3.4,10.39,0,20.36-2.11,29.41-5.94,13.58-5.75,25.08-15.3,33.22-27.35,4.07-6.02,7.3-12.68,9.51-19.79,2.21-7.11,3.4-14.67,3.4-22.46h-15.85Z"/>
    <path class="cls-2" d="M1091.84,75.64c0-6.1,1.23-11.82,3.44-17.06,3.32-7.85,8.89-14.57,15.9-19.3,3.5-2.37,7.35-4.23,11.46-5.51,4.11-1.28,8.47-1.97,13.04-1.97,6.1,0,11.82,1.23,17.06,3.44,7.85,3.32,14.57,8.89,19.3,15.9,2.37,3.5,4.23,7.35,5.51,11.46,1.28,4.11,1.97,8.47,1.97,13.04h31.7c0-10.39-2.11-20.36-5.94-29.41-5.75-13.58-15.3-25.08-27.35-33.22-6.02-4.07-12.68-7.3-19.79-9.51-7.11-2.21-14.67-3.4-22.46-3.4-10.39,0-20.36,2.11-29.41,5.94-13.58,5.75-25.08,15.3-33.22,27.35-4.07,6.02-7.3,12.68-9.51,19.79-2.21,7.11-3.4,14.67-3.4,22.46h31.7Z"/>
    <path class="cls-2" d="M699.56,39.28c5.07-3.42,10.85-5.8,17.11-6.86l-5.29-31.25c-10.8,1.83-20.85,5.96-29.56,11.85l17.74,26.26Z"/>
    <path class="cls-2" d="M680.22,75.64c0-7.62,1.91-14.67,5.28-20.88,3.37-6.21,8.22-11.53,14.06-15.47l-17.74-26.26c-10.04,6.79-18.35,15.9-24.16,26.61-5.82,10.7-9.13,23.03-9.13,36.01h31.7Z"/>
    <polyline class="cls-2" points="589.49 75.64 589.49 156.41 621.19 156.41 621.19 75.64"/>
    <polyline class="cls-2" points="648.53 75.64 648.53 156.41 680.22 156.41 680.22 75.64"/>
    <polygon class="cls-2" points="334.68 34.2 417.13 34.2 420.33 40.34 434.38 33.01 421.38 23.94 349.42 127.06 364.42 155.82 464.2 155.82 464.2 124.13 383.64 124.13 381.96 120.92 367.91 128.25 380.91 137.32 452.87 34.2 436.34 2.5 334.68 2.5 334.68 34.2"/>
    <path class="cls-1" d="M795.81,155.59c-42.83,0-77.68-34.85-77.68-77.68S752.98.23,795.81.23c10.99,0,21.71,3.08,22.89,3.43l.38.12c10.46,3.39,25.39,10.52,37.1,25.25l-25.22,20.06c-6.64-8.34-15.36-12.53-21.58-14.57-2.15-.61-8.37-2.06-13.57-2.06-25.06,0-45.45,20.39-45.45,45.45s20.39,45.45,45.45,45.45c5.66,0,11.78-1.5,13.47-2.03.16-.05,14.71-4.96,24.55-18.48C925.52-23.23,988.63.83,995.05,3.91l-17.97,28.42s.22.13.67.29c-.42-.14-42.75-14.09-117.85,89.18-15.96,21.95-38.44,29.49-40.95,30.27-1.12.35-11.46,3.51-23.13,3.51Z"/>
    <polyline class="cls-2" points="1060.28 3.32 1060.28 155.3 1091.7 155.3 1091.7 3.32"/>
    <polyline class="cls-2" points="1179.65 68.45 1179.65 155.3 1211.07 155.3 1211.07 68.45"/>
    <path class="cls-2" d="M1211.21,75.64c0-6.1,1.23-11.82,3.44-17.06,3.32-7.85,8.89-14.57,15.9-19.3,3.5-2.37,7.35-4.23,11.46-5.51,4.11-1.28,8.47-1.97,13.04-1.97,6.1,0,11.82,1.23,17.06,3.44,7.85,3.32,14.57,8.89,19.3,15.9,2.37,3.5,4.23,7.35,5.51,11.46,1.28,4.11,1.97,8.47,1.97,13.04h31.7c0-10.39-2.11-20.36-5.94-29.41-5.75-13.58-15.3-25.08-27.35-33.22-6.02-4.07-12.68-7.3-19.79-9.51-7.11-2.21-14.67-3.4-22.46-3.4-10.39,0-20.36,2.11-29.41,5.94-13.58,5.75-25.08,15.3-33.22,27.35-4.07,6.02-7.3,12.68-9.51,19.79-2.21,7.11-3.4,14.67-3.4,22.46h31.7Z"/>
    <polyline class="cls-2" points="1299.02 68.45 1299.02 155.3 1330.44 155.3 1330.44 68.45"/>
    <path class="cls-2" d="M1344.24,138.1c1.41-1.41,3.11-2.11,5.1-2.11s3.69.7,5.1,2.11c1.41,1.41,2.11,3.11,2.11,5.1s-.7,3.69-2.11,5.1c-1.41,1.41-3.11,2.11-5.1,2.11s-3.69-.7-5.1-2.11c-1.41-1.41-2.11-3.11-2.11-5.1s.7-3.69,2.11-5.1ZM1345.15,147.42c1.16,1.16,2.55,1.73,4.19,1.73s3.03-.58,4.19-1.73c1.16-1.16,1.73-2.56,1.73-4.22s-.58-3.03-1.73-4.19c-1.16-1.16-2.55-1.73-4.19-1.73s-3.04.58-4.19,1.73c-1.16,1.16-1.74,2.55-1.74,4.19s.58,3.06,1.74,4.22ZM1349.37,140.96c-.63,0-1.14.21-1.54.63-.4.42-.6.96-.6,1.62s.2,1.2.6,1.62c.4.42.91.63,1.54.63.94,0,1.56-.42,1.87-1.25h1.65c-.18.84-.6,1.5-1.25,2-.66.5-1.42.75-2.27.75-1.05,0-1.93-.36-2.65-1.07-.71-.71-1.07-1.6-1.07-2.67s.35-1.96,1.07-2.67c.71-.71,1.59-1.07,2.65-1.07.85,0,1.61.25,2.27.75.66.5,1.08,1.17,1.25,2h-1.65c-.32-.84-.94-1.25-1.87-1.25Z"/>
  </g>
</svg>